<?xml version="1.0" encoding="UTF-8"?>
<svg width="100pt" height="100pt" version="1.1" viewBox="0 0 100 100" xmlns="http://www.w3.org/2000/svg">
 <g fill="#ffb703">
  <path d="m52.328 53.211-0.50391 1.6992"/>
  <path d="m48.867 66.121-2.457 9.1328"/>
  <path d="m60.578 63.793c-0.125-0.75391-0.25-1.4492-0.50391-2.2031-0.25-0.69141-0.56641-1.3867-0.94531-2.0156-0.37891-0.62891-0.82031-1.2578-1.3242-1.8281-0.50391-0.56641-1.0703-1.0703-1.6367-1.5742-0.62891-0.44141-1.2578-0.88281-1.9531-1.1953-0.44141-0.25-0.94531-0.44141-1.4492-0.56641l0.25-0.94531c0.125-0.44141-0.125-0.88281-0.56641-1.0078-0.44141-0.125-0.88281 0.125-1.0078 0.56641l-0.18359 0.94531c-0.50391-0.0625-0.94531-0.1875-1.4492-0.1875-0.75391-0.0625-1.5117 0-2.2656 0.0625-0.75391 0.125-1.4492 0.25-2.2031 0.50391-0.69141 0.25-1.3867 0.56641-2.0156 0.94531-0.62891 0.37891-1.2578 0.82031-1.8281 1.3242-0.56641 0.50391-1.0703 1.0078-1.5742 1.6367-0.44141 0.62891-0.88281 1.2578-1.1953 1.9531-0.37891 0.69141-0.62891 1.4492-0.82031 2.2031-0.1875 0.75391-0.31641 1.5117-0.37891 2.332v0.0625 0.0625c0.0625 0.37891 0.37891 0.69141 0.75391 0.75391 0.44141 0 0.75391-0.25 0.82031-0.62891 0.25-0.94531 1.2578-1.5117 2.2031-1.2578 0.94531 0.25 1.5117 1.2578 1.2578 2.2031-0.125 0.44141 0.125 0.88281 0.56641 1.0078h0.1875 0.0625 0.125c0.0625 0 0.125-0.0625 0.1875-0.0625s0.0625 0 0.125-0.0625 0.125-0.0625 0.125-0.125l0.0625-0.0625c0.0625-0.0625 0.125-0.1875 0.125-0.25 0.25-0.94531 1.2578-1.5117 2.2031-1.2578 0.44141 0.125 0.88281 0.44141 1.0703 0.82031 0.25 0.44141 0.31641 0.88281 0.1875 1.3867l-2 7.668c-0.25 0.94531-1.2578 1.5117-2.2031 1.2578-0.94531-0.25-1.5117-1.2578-1.2578-2.2031 0.125-0.44141-0.125-0.88281-0.56641-1.0078s-0.88281 0.125-1.0078 0.56641c-0.50391 1.8281 0.62891 3.7148 2.457 4.2188 0.31641 0.0625 0.62891 0.125 0.88281 0.125 1.5117 0 2.9609-1.0078 3.3359-2.582l2.0781-7.7422c0.25-0.94531 1.2578-1.5117 2.2031-1.2578 0.94531 0.25 1.5117 1.2578 1.2578 2.2031-0.125 0.44141 0.125 0.88281 0.56641 1.0078h0.1875 0.0625 0.125c0.0625 0 0.125-0.0625 0.1875-0.0625 0 0 0.0625 0 0.0625-0.0625 0.0625-0.0625 0.125-0.0625 0.125-0.125l0.0625-0.0625c0.0625-0.0625 0.125-0.1875 0.125-0.25 0.125-0.44141 0.44141-0.88281 0.82031-1.0703 0.44141-0.25 0.88281-0.31641 1.3867-0.1875 0.44141 0.125 0.88281 0.44141 1.0703 0.82031 0.1875 0.37891 0.31641 0.88281 0.1875 1.3867-0.0625 0.31641 0 0.56641 0.25 0.82031l0.25 0.25c0.125 0.0625 0.25 0.0625 0.37891 0.0625 0.31641 0 0.62891-0.1875 0.75391-0.44141 0.37891-0.69141 0.62891-1.4492 0.82031-2.2031 0.1875-0.75391 0.31641-1.5117 0.37891-2.332 0.13672-0.82422 0.13672-1.6445 0.007813-2.3359zm-3.5898 2.2656c-0.88281-0.25-1.8281-0.125-2.6445 0.31641-0.0625 0.0625-0.125 0.125-0.25 0.1875-0.44141-0.88281-1.1953-1.5742-2.2031-1.8906-1.0078-0.25-2.0781-0.0625-2.832 0.50391-0.0625-0.0625-0.0625-0.1875-0.125-0.25-0.44141-0.82031-1.1953-1.3867-2.0781-1.6367-1.0078-0.25-2.0781-0.0625-2.832 0.50391-0.44141-0.88281-1.1953-1.5742-2.2031-1.8906-0.69141-0.1875-1.4492-0.125-2.0781 0.0625 0.125-0.44141 0.31641-0.82031 0.50391-1.1953 0.31641-0.56641 0.62891-1.1328 1.0703-1.6367 0.37891-0.50391 0.82031-0.94531 1.3242-1.3867s1.0078-0.82031 1.5742-1.1328c0.56641-0.31641 1.1328-0.56641 1.7617-0.82031 0.62891-0.1875 1.2578-0.37891 1.8906-0.44141 0.62891-0.0625 1.3242-0.125 1.9531-0.0625 0.69141 0.0625 1.3242 0.125 2.0156 0.31641 0.62891 0.1875 1.2578 0.44141 1.8906 0.69141 0.56641 0.31641 1.1328 0.62891 1.6367 1.0703 0.50391 0.37891 0.94531 0.82031 1.3867 1.3242s0.82031 1.0078 1.1328 1.5742c0.31641 0.56641 0.56641 1.1328 0.82031 1.7617 0.1875 0.62891 0.37891 1.2578 0.44141 1.8906 0.0625 0.62891 0.125 1.3242 0.0625 1.9531 0 0.44141-0.125 0.94531-0.1875 1.3867-0.64453-0.50781-1.2734-0.94531-2.0312-1.1992z"/>
  <path d="m34.695 54.598s1.4492 5.2266-1.1953 4.4727c-2.6445-0.69531 1.1953-4.4727 1.1953-4.4727z"/>
  <path d="m60.516 52.328s1.4492 5.2266-1.1953 4.4727c-2.6445-0.75391 1.1953-4.4727 1.1953-4.4727z"/>
  <path d="m72.293 53.777s1.4492 5.2266-1.1953 4.4727c-2.6445-0.75781 1.1953-4.4727 1.1953-4.4727z"/>
  <path d="m66.688 57.242s1.4492 5.2266-1.1953 4.4727c-2.6445-0.75781 1.1953-4.4727 1.1953-4.4727z"/>
  <path d="m43.953 49.496s1.4492 5.2266-1.1953 4.4727c-2.6445-0.75781 1.1953-4.4727 1.1953-4.4727z"/>
  <path d="m68.828 65.113s1.4492 5.2266-1.1953 4.4727c-2.707-0.69141 1.1953-4.4727 1.1953-4.4727z"/>
  <path d="m37.406 21.977h1.6367v3.7773h-1.6367z"/>
  <path d="m48.07 25.664 1.1562 1.1562-2.6719 2.6719-1.1562-1.1562z"/>
  <path d="m29.809 43.914 1.1562 1.1562-2.6719 2.6719-1.1562-1.1562z"/>
  <path d="m28.297 25.797 2.6719 2.6719-1.1562 1.1562-2.6719-2.6719z"/>
  <path d="m23.426 35.957h3.7773v1.6367h-3.7773z"/>
  <path d="m37.406 47.797h1.6367v3.7773h-1.6367z"/>
  <path d="m71.602 36.902c0.1875-0.62891 0.25-1.3242 0.25-1.9531 0-4.2812-3.5273-7.8086-7.8711-7.8086-2.582 0-4.9766 1.2578-6.4219 3.3359-1.1953-0.88281-2.6445-1.3867-4.1562-1.3867-3.9062 0-7.0547 3.1484-7.1172 6.9922-0.1875 0.0625-0.44141 0.125-0.62891 0.1875-0.25-3.8398-3.4648-6.9258-7.3672-6.9258-4.0938 0-7.3672 3.3359-7.3672 7.3672 0 4.0938 3.3359 7.3672 7.3672 7.3672 1.1953 0 2.2656-0.25 3.2734-0.75391 0.44141 3.2109 3.2109 5.7305 6.5508 5.7305 0.25 0 0.50391 0 0.75391-0.0625 1.0078 1.6992 2.8984 2.7695 4.9141 2.7695 1.6992 0 3.3359-0.75391 4.4102-2.0781 1.1328 0.88281 2.5195 1.3867 3.9688 1.3867 2.2031 0 4.2812-1.1328 5.4141-2.9609 0.88281 0.50391 1.8906 0.75391 2.9609 0.75391 3.3359 0 6.0469-2.707 6.0469-6.0469-0.007812-2.8945-2.1484-5.3477-4.9805-5.9141zm-39.109-0.12891c0-3.1484 2.582-5.7305 5.7305-5.7305 3.1484 0 5.7305 2.582 5.7305 5.7305 0 0.1875 0 0.37891-0.0625 0.50391-1.2578 1.0078-2.1406 2.5195-2.3945 4.1562-0.94531 0.62891-2.0781 1.0078-3.2734 1.0078-3.1484 0.12891-5.7305-2.4531-5.7305-5.668zm38.039 10.52c-1.0078 0-1.9531-0.31641-2.707-0.94531l-0.82031-0.62891-0.44141 0.94531c-0.75391 1.6992-2.5195 2.832-4.4102 2.832-1.3242 0-2.582-0.56641-3.5273-1.5117l-0.75391-0.82031-0.56641 0.94531c-0.75391 1.2578-2.0781 2.0781-3.5273 2.0781-1.5742 0-3.0234-0.94531-3.7148-2.332l-0.25-0.56641-0.62891 0.125c-0.44141 0.003907-0.75781 0.066407-1.1367 0.066407-2.707 0-4.9766-2.2031-4.9766-4.9766 0-2.457 1.7617-4.4727 4.1562-4.9141l0.75391-0.125-0.0625-0.75391v-0.50391c0-3.0234 2.457-5.4141 5.4141-5.4141 1.4492 0 2.7695 0.56641 3.7773 1.5742l0.82031 0.82031 0.50391-1.0078c1.0703-2.0781 3.1484-3.3359 5.4805-3.3359 3.4023 0 6.1719 2.7695 6.1719 6.1719 0 0.82031-0.125 1.6367-0.44141 2.3945l-0.44141 1.1328h1.2578c2.457 0 4.4102 1.9531 4.4102 4.4102 0.066406 2.3242-1.9492 4.3398-4.3398 4.3398z"/>
 </g>
</svg>
