<?xml version="1.0" encoding="UTF-8"?>
<svg width="100pt" height="100pt" version="1.1" viewBox="0 0 100 100" xmlns="http://www.w3.org/2000/svg">
 <g fill="#fb8500">
  <path d="m53.699 55.102-0.80078 2.6992"/>
  <path d="m48.199 75.602-3.8984 14.5"/>
  <path d="m66.801 71.898c-0.19922-1.1992-0.39844-2.3008-0.80078-3.5-0.39844-1.1016-0.89844-2.1992-1.5-3.1992s-1.3008-2-2.1016-2.8984c-0.80078-0.89844-1.6992-1.6992-2.6016-2.5-1-0.69922-2-1.3984-3.1016-1.8984-0.69922-0.39844-1.5-0.69922-2.3008-0.89844l0.39844-1.5c0.19922-0.69922-0.19922-1.3984-0.89844-1.6016-0.69922-0.19922-1.3984 0.19922-1.6016 0.89844l-0.29297 1.5c-0.80078-0.10156-1.5-0.30078-2.3008-0.30078-1.1992-0.10156-2.3984 0-3.6016 0.10156-1.1992 0.19922-2.3008 0.39844-3.5 0.80078-1.1016 0.39844-2.1992 0.89844-3.1992 1.5-1 0.60156-2 1.3008-2.8984 2.1016-0.89844 0.80078-1.6992 1.6016-2.5 2.6016-0.69922 1-1.3984 2-1.8984 3.1016-0.60156 1.1016-1 2.3008-1.3008 3.5s-0.5 2.3984-0.60156 3.6992v0.10156 0.10156c0.10156 0.60156 0.60156 1.1016 1.1992 1.1992 0.69922 0 1.1992-0.39844 1.3008-1 0.39844-1.5 2-2.3984 3.5-2 1.5 0.39844 2.3984 2 2 3.5-0.19922 0.69922 0.19922 1.3984 0.89844 1.6016h0.30078 0.10156 0.19922c0.10156 0 0.19922-0.10156 0.30078-0.10156s0.10156 0 0.19922-0.10156c0.10156-0.10156 0.19922-0.10156 0.19922-0.19922l0.10156-0.10156c0.10156-0.10156 0.19922-0.30078 0.19922-0.39844 0.39844-1.5 2-2.3984 3.5-2 0.69922 0.19922 1.3984 0.69922 1.6992 1.3008 0.39844 0.69922 0.5 1.3984 0.30078 2.1992l-3.1992 12.191c-0.39844 1.5-2 2.3984-3.5 2-1.5-0.39844-2.3984-2-2-3.5 0.19922-0.69922-0.19922-1.3984-0.89844-1.6016-0.69922-0.19922-1.3984 0.19922-1.6016 0.89844-0.80078 2.8984 1 5.8984 3.8984 6.6992 0.5 0.10156 1 0.19922 1.3984 0.19922 2.3984 0 4.6992-1.6016 5.3008-4.1016l3.3008-12.293c0.39844-1.5 2-2.3984 3.5-2s2.3984 2 2 3.5c-0.19922 0.69922 0.19922 1.3984 0.89844 1.6016h0.30078 0.10156 0.19922c0.10156 0 0.19922-0.10156 0.30078-0.10156 0 0 0.10156 0 0.10156-0.10156 0.10156-0.10156 0.19922-0.10156 0.19922-0.19922l0.10156-0.10156c0.10156-0.10156 0.19922-0.30078 0.19922-0.39844 0.19922-0.69922 0.69922-1.3984 1.3008-1.6992 0.69922-0.39844 1.3984-0.5 2.1992-0.30078 0.69922 0.19922 1.3984 0.69922 1.6992 1.3008s0.5 1.3984 0.30078 2.1992c-0.10156 0.5 0 0.89844 0.39844 1.3008l0.10156 0.10156c0.10156 0.10156 0.19922 0.19922 0.30078 0.30078 0.19922 0.10156 0.39844 0.10156 0.60156 0.10156 0.5 0 1-0.30078 1.1992-0.69922 0.60156-1.1016 1-2.3008 1.3008-3.5 0.30078-1.1992 0.5-2.3984 0.60156-3.6992 0.19531-1.3047 0.19531-2.6055-0.003907-3.707zm-5.6992 3.6016c-1.3984-0.39844-2.8984-0.19922-4.1992 0.5-0.10156 0.10156-0.19922 0.19922-0.39844 0.30078-0.69922-1.3984-1.8984-2.5-3.5-3-1.6016-0.39844-3.3008-0.10156-4.5 0.80078-0.10156-0.10156-0.10156-0.30078-0.19922-0.39844-0.69922-1.3008-1.8984-2.1992-3.3008-2.6016-1.6016-0.39844-3.3008-0.10156-4.5 0.80078-0.69922-1.3984-1.8984-2.5-3.5-3-1.1016-0.30078-2.3008-0.19922-3.3008 0.10156 0.19922-0.69922 0.5-1.3008 0.80078-1.8984 0.5-0.89844 1-1.8008 1.6992-2.6016 0.60156-0.80078 1.3008-1.5 2.1016-2.1992 0.80078-0.69922 1.6016-1.3008 2.5-1.8008 0.89844-0.5 1.8008-0.89844 2.8008-1.3008 1-0.30078 2-0.60156 3-0.69922 1-0.10156 2.1016-0.19922 3.1016-0.10156 1.1016 0.10156 2.1016 0.19922 3.1992 0.5 1 0.30078 2 0.69922 3 1.1016 0.89844 0.5 1.8008 1 2.6016 1.6992 0.80078 0.60156 1.5 1.3008 2.1992 2.1016 0.69922 0.80078 1.3008 1.6016 1.8008 2.5 0.5 0.89844 0.89844 1.8008 1.3008 2.8008 0.30078 1 0.60156 2 0.69922 3 0.10156 1 0.19922 2.1016 0.10156 3.1016 0 0.69922-0.19922 1.5-0.30078 2.1992-1.0078-0.80469-2.0078-1.5078-3.207-1.9062z"/>
  <path d="m25.699 57.301s2.3008 8.3008-1.8984 7.1016c-4.1992-1.1016 1.8984-7.1016 1.8984-7.1016z"/>
  <path d="m66.699 53.699s2.3008 8.3008-1.8984 7.1016 1.8984-7.1016 1.8984-7.1016z"/>
  <path d="m85.398 56s2.3008 8.3008-1.8984 7.1016c-4.1992-1.2031 1.8984-7.1016 1.8984-7.1016z"/>
  <path d="m76.5 61.5s2.3008 8.3008-1.8984 7.1016c-4.2031-1.2031 1.8984-7.1016 1.8984-7.1016z"/>
  <path d="m40.398 49.199s2.3008 8.3008-1.8984 7.1016 1.8984-7.1016 1.8984-7.1016z"/>
  <path d="m79.898 74s2.3008 8.3008-1.8984 7.1016c-4.3008-1.1016 1.8984-7.1016 1.8984-7.1016z"/>
  <path d="m30 5.5h2.6016v6h-2.6016z"/>
  <path d="m46.934 11.355 1.8398 1.8398-4.2422 4.2422-1.8398-1.8398z"/>
  <path d="m17.938 40.332 1.8398 1.8398-4.2422 4.2422-1.8398-1.8398z"/>
  <path d="m15.539 11.566 4.2422 4.2422-1.8398 1.8398-4.2422-4.2422z"/>
  <path d="m7.8008 27.699h6v2.6016h-6z"/>
  <path d="m30 46.5h2.6016v6h-2.6016z"/>
  <path d="m84.301 29.199c0.30078-1 0.39844-2.1016 0.39844-3.1016 0-6.8008-5.6016-12.398-12.5-12.398-4.1016 0-7.8984 2-10.199 5.3008-1.8984-1.3984-4.1992-2.1992-6.6016-2.1992-6.1992 0-11.199 5-11.301 11.102-0.30078 0.10156-0.69922 0.19922-1 0.30078-0.39844-6.1016-5.5-11-11.699-11-6.5 0-11.699 5.3008-11.699 11.699 0 6.5 5.3008 11.699 11.699 11.699 1.8984 0 3.6016-0.39844 5.1992-1.1992 0.69922 5.1016 5.1016 9.1016 10.398 9.1016 0.39844 0 0.80078 0 1.1992-0.10156 1.6016 2.6992 4.6016 4.3984 7.8008 4.3984 2.6992 0 5.3008-1.1992 7-3.3008 1.8008 1.3984 4 2.1992 6.3008 2.1992 3.5 0 6.8008-1.8008 8.6016-4.6992 1.3984 0.80078 3 1.1992 4.6992 1.1992 5.3008 0 9.6016-4.3008 9.6016-9.6016 0-4.5977-3.3984-8.4961-7.8984-9.3984zm-62.102-0.19922c0-5 4.1016-9.1016 9.1016-9.1016s9.1016 4.1016 9.1016 9.1016c0 0.30078 0 0.60156-0.10156 0.80078-2 1.6016-3.3984 4-3.8008 6.6016-1.5 1-3.3008 1.6016-5.1992 1.6016-5 0.19531-9.1016-3.9023-9.1016-9.0039zm60.402 16.699c-1.6016 0-3.1016-0.5-4.3008-1.5l-1.3008-1-0.69922 1.5c-1.1992 2.6992-4 4.5-7 4.5-2.1016 0-4.1016-0.89844-5.6016-2.3984l-1.1992-1.3008-0.89844 1.5c-1.1992 2-3.3008 3.3008-5.6016 3.3008-2.5 0-4.8008-1.5-5.8984-3.6992l-0.39844-0.89844-1 0.19922c-0.70312-0.003906-1.2031 0.097656-1.8047 0.097656-4.3008 0-7.8984-3.5-7.8984-7.8984 0-3.8984 2.8008-7.1016 6.6016-7.8008l1.1992-0.19922-0.10156-1.1992v-0.80078c0-4.8008 3.8984-8.6016 8.6016-8.6016 2.3008 0 4.3984 0.89844 6 2.5l1.3008 1.3008 0.80078-1.6016c1.6992-3.3008 5-5.3008 8.6992-5.3008 5.3984 0 9.8008 4.3984 9.8008 9.8008 0 1.3008-0.19922 2.6016-0.69922 3.8008l-0.69922 1.8008h2c3.8984 0 7 3.1016 7 7 0.097656 3.6992-3.1055 6.8984-6.9023 6.8984z"/>
 </g>
</svg>
